<?xml version="1.0"?>
<svg xmlns="http://www.w3.org/2000/svg" xmlns:xlink="http://www.w3.org/1999/xlink" version="1.1" id="Layer_1" x="0px" y="0px" viewBox="0 0 512 512" style="enable-background:new 0 0 512 512;" xml:space="preserve" width="512px" height="512px" class="hovered-paths"><g><g><g>
	<path style="fill:#FFDA71" d="M256,32C132.48,32,32,132.48,32,256s100.48,224,224,224s224-100.48,224-224S379.52,32,256,32z    M120.176,183.152c0-24.608,19.952-44.56,44.56-44.56s44.56,19.952,44.56,44.56s-19.952,44.56-44.56,44.56   C140.128,227.712,120.176,207.76,120.176,183.152z M256,407.008c-63.712,0-115.36-51.648-115.36-115.36h230.72   C371.36,355.344,319.712,407.008,256,407.008z M347.264,227.712c-24.608,0-44.56-19.952-44.56-44.56s19.952-44.56,44.56-44.56   s44.56,19.952,44.56,44.56S371.872,227.712,347.264,227.712z" data-original="#FFDA71" class="" data-old_color="#E2E2E2"/>
	<path style="fill:#FFDA71" d="M256,375.008c34.64,0,64.4-21.232,76.976-51.36H179.008C191.6,353.76,221.36,375.008,256,375.008z" data-original="#FFDA71" class="" data-old_color="#E2E2E2"/>
</g><g>
	<path style="fill:#333333" d="M256,0C114.608,0,0,114.608,0,256s114.608,256,256,256s256-114.608,256-256S397.392,0,256,0z    M256,480C132.48,480,32,379.52,32,256S132.48,32,256,32s224,100.48,224,224S379.52,480,256,480z" data-original="#333333" class="hovered-path active-path"/>
	<path style="fill:#333333" d="M256,407.008c63.712,0,115.36-51.648,115.36-115.36H140.64   C140.64,355.344,192.288,407.008,256,407.008z M332.976,323.632C320.4,353.76,290.64,374.992,256,374.992   s-64.4-21.232-76.976-51.36L332.976,323.632L332.976,323.632z" data-original="#333333" class="hovered-path active-path"/>
	<circle style="fill:#333333" cx="164.736" cy="183.152" r="44.56" data-original="#333333" class="hovered-path active-path"/>
	<circle style="fill:#333333" cx="347.264" cy="183.152" r="44.56" data-original="#333333" class="hovered-path active-path"/>
</g></g></g> </svg>
